<?xml version="1.0" encoding="us-ascii" standalone="no"?><svg xmlns="http://www.w3.org/2000/svg" xmlns:xlink="http://www.w3.org/1999/xlink" contentStyleType="text/css" height="568px" preserveAspectRatio="none" style="width:1791px;height:568px;background:#FFFFFF;" version="1.1" viewBox="0 0 1791 568" width="1791px" zoomAndPan="magnify"><defs/><g><!--cluster dto--><g id="cluster_dto"><path d="M420.5,103.97 L445.5,103.97 A3.75,3.75 0 0 1 448,106.47 L455,126.4583 L957.5,126.4583 A2.5,2.5 0 0 1 960,128.9583 L960,490.89 A2.5,2.5 0 0 1 957.5,493.39 L420.5,493.39 A2.5,2.5 0 0 1 418,490.89 L418,106.47 A2.5,2.5 0 0 1 420.5,103.97 " fill="none" style="stroke:#000000;stroke-width:1.5;"/><line style="stroke:#000000;stroke-width:1.5;" x1="418" x2="455" y1="126.4583" y2="126.4583"/><text fill="#000000" font-family="sans-serif" font-size="14" font-weight="bold" lengthAdjust="spacing" textLength="24" x="422" y="119.5052">dto</text></g><!--cluster ModuleInfo--><g id="cluster_ModuleInfo"><path d="M444.5,304.44 L527.5,304.44 A3.75,3.75 0 0 1 530,306.94 L537,326.9283 L933.5,326.9283 A2.5,2.5 0 0 1 936,329.4283 L936,466.89 A2.5,2.5 0 0 1 933.5,469.39 L444.5,469.39 A2.5,2.5 0 0 1 442,466.89 L442,306.94 A2.5,2.5 0 0 1 444.5,304.44 " fill="none" style="stroke:#000000;stroke-width:1.5;"/><line style="stroke:#000000;stroke-width:1.5;" x1="442" x2="537" y1="326.9283" y2="326.9283"/><text fill="#000000" font-family="sans-serif" font-size="14" font-weight="bold" lengthAdjust="spacing" textLength="82" x="446" y="319.9752">ModuleInfo</text></g><!--cluster Calculation--><g id="cluster_Calculation"><path d="M487.5,146.97 L569.5,146.97 A3.75,3.75 0 0 1 572,149.47 L579,169.4583 L890.5,169.4583 A2.5,2.5 0 0 1 893,171.9583 L893,259.96 A2.5,2.5 0 0 1 890.5,262.46 L487.5,262.46 A2.5,2.5 0 0 1 485,259.96 L485,149.47 A2.5,2.5 0 0 1 487.5,146.97 " fill="none" style="stroke:#000000;stroke-width:1.5;"/><line style="stroke:#000000;stroke-width:1.5;" x1="485" x2="579" y1="169.4583" y2="169.4583"/><text fill="#000000" font-family="sans-serif" font-size="14" font-weight="bold" lengthAdjust="spacing" textLength="81" x="489" y="162.5052">Calculation</text></g><!--class Details--><g id="elem_Details"><rect codeLine="1" fill="#F1F1F1" height="113.9531" id="Details" rx="2.5" ry="2.5" style="stroke:#181818;stroke-width:0.5;" width="461" x="458.5" y="339.44"/><ellipse cx="661.75" cy="355.44" fill="#ADD1B2" rx="11" ry="11" style="stroke:#181818;stroke-width:1.0;"/><path d="M665.3643,361.94 L657.6445,361.94 L657.6445,349.5469 L665.3643,349.5469 L665.3643,351.7051 L660.0933,351.7051 L660.0933,354.378 L664.8662,354.378 L664.8662,356.5362 L660.0933,356.5362 L660.0933,359.7818 L665.3643,359.7818 Z " fill="#000000"/><text fill="#000000" font-family="sans-serif" font-size="14" lengthAdjust="spacing" textLength="46" x="682.25" y="360.731">Details</text><line style="stroke:#181818;stroke-width:0.5;" x1="459.5" x2="918.5" y1="371.44" y2="371.44"/><ellipse cx="469.5" cy="385.1841" fill="none" rx="3" ry="3" style="stroke:#038048;stroke-width:1.0;"/><text fill="#000000" font-family="sans-serif" font-size="14" lengthAdjust="spacing" textLength="87" x="478.5" y="388.9752">name: String</text><ellipse cx="469.5" cy="401.6724" fill="none" rx="3" ry="3" style="stroke:#038048;stroke-width:1.0;"/><text fill="#000000" font-family="sans-serif" font-size="14" lengthAdjust="spacing" textLength="126" x="478.5" y="405.4634">description: String</text><ellipse cx="469.5" cy="418.1607" fill="none" rx="3" ry="3" style="stroke:#038048;stroke-width:1.0;"/><text fill="#000000" font-family="sans-serif" font-size="14" lengthAdjust="spacing" textLength="160" x="478.5" y="421.9517">main_window: QWidget</text><line style="stroke:#181818;stroke-width:0.5;" x1="459.5" x2="918.5" y1="428.9048" y2="428.9048"/><text fill="#000000" font-family="sans-serif" font-size="14" lengthAdjust="spacing" text-decoration="underline" textLength="449" x="464.5" y="446.44">from_module(module: types.ModuleType): dto.ModuleInfo.Details</text></g><!--class Result--><g id="elem_Result"><rect codeLine="10" fill="#F1F1F1" height="64.4883" id="Result" rx="2.5" ry="2.5" style="stroke:#181818;stroke-width:0.5;" width="135" x="501.5" y="181.97"/><ellipse cx="543.95" cy="197.97" fill="#ADD1B2" rx="11" ry="11" style="stroke:#181818;stroke-width:1.0;"/><path d="M547.5643,204.47 L539.8445,204.47 L539.8445,192.0769 L547.5643,192.0769 L547.5643,194.2351 L542.2933,194.2351 L542.2933,196.908 L547.0662,196.908 L547.0662,199.0662 L542.2933,199.0662 L542.2933,202.3118 L547.5643,202.3118 Z " fill="#000000"/><text fill="#000000" font-family="sans-serif" font-size="14" lengthAdjust="spacing" textLength="42" x="564.05" y="203.261">Result</text><line style="stroke:#181818;stroke-width:0.5;" x1="502.5" x2="635.5" y1="213.97" y2="213.97"/><ellipse cx="512.5" cy="227.7141" fill="none" rx="3" ry="3" style="stroke:#038048;stroke-width:1.0;"/><text fill="#000000" font-family="sans-serif" font-size="14" lengthAdjust="spacing" textLength="109" x="521.5" y="231.5052">value: Float | Int</text><line style="stroke:#181818;stroke-width:0.5;" x1="502.5" x2="635.5" y1="238.4583" y2="238.4583"/></g><!--class Input--><g id="elem_Input"><rect codeLine="18" fill="#F1F1F1" height="64.4883" id="Input" rx="2.5" ry="2.5" style="stroke:#181818;stroke-width:0.5;" width="206" x="671" y="181.97"/><ellipse cx="751.75" cy="197.97" fill="#ADD1B2" rx="11" ry="11" style="stroke:#181818;stroke-width:1.0;"/><path d="M755.3643,204.47 L747.6445,204.47 L747.6445,192.0769 L755.3643,192.0769 L755.3643,194.2351 L750.0933,194.2351 L750.0933,196.908 L754.8662,196.908 L754.8662,199.0662 L750.0933,199.0662 L750.0933,202.3118 L755.3643,202.3118 Z " fill="#000000"/><text fill="#000000" font-family="sans-serif" font-size="14" lengthAdjust="spacing" textLength="36" x="772.25" y="203.261">Input</text><line style="stroke:#181818;stroke-width:0.5;" x1="672" x2="876" y1="213.97" y2="213.97"/><ellipse cx="682" cy="227.7141" fill="none" rx="3" ry="3" style="stroke:#038048;stroke-width:1.0;"/><text fill="#000000" font-family="sans-serif" font-size="14" lengthAdjust="spacing" textLength="180" x="691" y="231.5052">input: List[Float|Int|String]</text><line style="stroke:#181818;stroke-width:0.5;" x1="672" x2="876" y1="238.4583" y2="238.4583"/></g><!--class QWidget--><g id="elem_QWidget"><rect fill="#F1F1F1" height="48" id="QWidget" rx="2.5" ry="2.5" style="stroke:#181818;stroke-width:0.5;" width="90" x="949" y="513.39"/><ellipse cx="964" cy="529.39" fill="#ADD1B2" rx="11" ry="11" style="stroke:#181818;stroke-width:1.0;"/><path d="M966.4731,535.5331 Q965.8921,535.8319 965.2529,535.9813 Q964.6138,536.1307 963.9082,536.1307 Q961.4014,536.1307 960.0815,534.4789 Q958.7617,532.827 958.7617,529.7059 Q958.7617,526.5765 960.0815,524.9247 Q961.4014,523.2728 963.9082,523.2728 Q964.6138,523.2728 965.2612,523.4222 Q965.9087,523.5716 966.4731,523.8705 L966.4731,526.5931 Q965.8423,526.0121 965.2488,525.7423 Q964.6553,525.4725 964.0244,525.4725 Q962.6797,525.4725 961.9949,526.5392 Q961.3101,527.6058 961.3101,529.7059 Q961.3101,531.7977 961.9949,532.8644 Q962.6797,533.931 964.0244,533.931 Q964.6553,533.931 965.2488,533.6612 Q965.8423,533.3915 966.4731,532.8104 Z " fill="#000000"/><text fill="#000000" font-family="sans-serif" font-size="14" lengthAdjust="spacing" textLength="58" x="978" y="534.681">QWidget</text><line style="stroke:#181818;stroke-width:0.5;" x1="950" x2="1038" y1="545.39" y2="545.39"/><line style="stroke:#181818;stroke-width:0.5;" x1="950" x2="1038" y1="553.39" y2="553.39"/></g><g id="elem_GMN10"><path d="M6,383.76 L6,409.0705 A0,0 0 0 0 6,409.0705 L402,409.0705 A0,0 0 0 0 402,409.0705 L402,393.76 L392,383.76 L232.33,383.76 L505,246.81 L224.33,383.76 L6,383.76 A0,0 0 0 0 6,383.76 " fill="#FEFFDD" style="stroke:#181818;stroke-width:0.5;"/><path d="M392,383.76 L392,393.76 L402,393.76 L392,383.76 " fill="#FEFFDD" style="stroke:#181818;stroke-width:0.5;"/><text fill="#000000" font-family="sans-serif" font-size="13" lengthAdjust="spacing" textLength="375" x="12" y="401.3284">The Result of a Calculation can be either of type Float or Int</text></g><!--class Module--><g id="elem_Module"><rect codeLine="22" fill="#F1F1F1" height="80.9766" id="Module" rx="2.5" ry="2.5" style="stroke:#181818;stroke-width:0.5;" width="365" x="1419.5" y="7"/><ellipse cx="1572.25" cy="23" fill="#B4A7E5" rx="11" ry="11" style="stroke:#181818;stroke-width:1.0;"/><path d="M1568.6777,19.2651 L1568.6777,17.1069 L1576.0571,17.1069 L1576.0571,19.2651 L1573.5918,19.2651 L1573.5918,27.3418 L1576.0571,27.3418 L1576.0571,29.5 L1568.6777,29.5 L1568.6777,27.3418 L1571.1431,27.3418 L1571.1431,19.2651 Z " fill="#000000"/><text fill="#000000" font-family="sans-serif" font-size="14" font-style="italic" lengthAdjust="spacing" textLength="51" x="1592.75" y="28.291">Module</text><line style="stroke:#181818;stroke-width:0.5;" x1="1420.5" x2="1783.5" y1="39" y2="39"/><line style="stroke:#181818;stroke-width:0.5;" x1="1420.5" x2="1783.5" y1="47" y2="47"/><ellipse cx="1430.5" cy="60.7441" fill="#84BE84" rx="3" ry="3" style="stroke:#038048;stroke-width:1.0;"/><text fill="#000000" font-family="sans-serif" font-size="14" lengthAdjust="spacing" textLength="113" x="1439.5" y="64.5352">input(List[Float])</text><ellipse cx="1430.5" cy="77.2324" fill="#84BE84" rx="3" ry="3" style="stroke:#038048;stroke-width:1.0;"/><text fill="#000000" font-family="sans-serif" font-size="14" lengthAdjust="spacing" textLength="339" x="1439.5" y="81.0234">calculate(input: List[Float]): dto.Calculation.Result</text></g><!--class ModulesWidget--><g id="elem_ModulesWidget"><rect codeLine="27" fill="#F1F1F1" height="130.4414" id="ModulesWidget" rx="2.5" ry="2.5" style="stroke:#181818;stroke-width:0.5;" width="349" x="1014.5" y="149"/><ellipse cx="1132.25" cy="165" fill="#ADD1B2" rx="11" ry="11" style="stroke:#181818;stroke-width:1.0;"/><path d="M1134.7231,171.1431 Q1134.1421,171.4419 1133.5029,171.5913 Q1132.8638,171.7407 1132.1582,171.7407 Q1129.6514,171.7407 1128.3315,170.0889 Q1127.0117,168.437 1127.0117,165.3159 Q1127.0117,162.1865 1128.3315,160.5347 Q1129.6514,158.8828 1132.1582,158.8828 Q1132.8638,158.8828 1133.5112,159.0322 Q1134.1587,159.1816 1134.7231,159.4805 L1134.7231,162.2031 Q1134.0923,161.6221 1133.4988,161.3523 Q1132.9053,161.0825 1132.2744,161.0825 Q1130.9297,161.0825 1130.2449,162.1492 Q1129.5601,163.2158 1129.5601,165.3159 Q1129.5601,167.4077 1130.2449,168.4744 Q1130.9297,169.541 1132.2744,169.541 Q1132.9053,169.541 1133.4988,169.2712 Q1134.0923,169.0015 1134.7231,168.4204 Z " fill="#000000"/><text fill="#000000" font-family="sans-serif" font-size="14" lengthAdjust="spacing" textLength="105" x="1152.75" y="170.291">ModulesWidget</text><line style="stroke:#181818;stroke-width:0.5;" x1="1015.5" x2="1362.5" y1="181" y2="181"/><rect fill="none" height="6" style="stroke:#C82930;stroke-width:1.0;" width="6" x="1022.5" y="191.7441"/><text fill="#000000" font-family="sans-serif" font-size="14" lengthAdjust="spacing" textLength="284" x="1034.5" y="198.5352">available_modules: List&lt;dto.ModuleInfo&gt;</text><rect fill="none" height="6" style="stroke:#C82930;stroke-width:1.0;" width="6" x="1022.5" y="208.2324"/><text fill="#000000" font-family="sans-serif" font-size="14" lengthAdjust="spacing" textLength="226" x="1034.5" y="215.0234">modules_base_path: pathlib.Path</text><rect fill="none" height="6" style="stroke:#C82930;stroke-width:1.0;" width="6" x="1022.5" y="224.7207"/><text fill="#000000" font-family="sans-serif" font-size="14" lengthAdjust="spacing" textLength="234" x="1034.5" y="231.5117">active_module: ModuleInfo.Details</text><line style="stroke:#181818;stroke-width:0.5;" x1="1015.5" x2="1362.5" y1="238.4648" y2="238.4648"/><rect fill="#F24D5C" height="6" style="stroke:#C82930;stroke-width:1.0;" width="6" x="1022.5" y="249.209"/><text fill="#000000" font-family="sans-serif" font-size="14" lengthAdjust="spacing" textLength="245" x="1034.5" y="256">load_module(module_name: String)</text><rect fill="#F24D5C" height="6" style="stroke:#C82930;stroke-width:1.0;" width="6" x="1022.5" y="265.6973"/><text fill="#000000" font-family="sans-serif" font-size="14" lengthAdjust="spacing" textLength="323" x="1034.5" y="272.4883">get_available_modules(): List&lt;dto.ModuleInfo&gt;</text></g><g id="elem_GMN18"><path d="M1047,376.1 L1047,416.7211 A0,0 0 0 0 1047,416.7211 L1409,416.7211 A0,0 0 0 0 1409,416.7211 L1409,386.1 L1399,376.1 L1227.76,376.1 L1202.97,279.76 L1219.76,376.1 L1047,376.1 A0,0 0 0 0 1047,376.1 " fill="#FEFFDD" style="stroke:#181818;stroke-width:0.5;"/><path d="M1399,376.1 L1399,386.1 L1409,386.1 L1399,376.1 " fill="#FEFFDD" style="stroke:#181818;stroke-width:0.5;"/><text fill="#000000" font-family="sans-serif" font-size="13" lengthAdjust="spacing" textLength="341" x="1053" y="393.6684">Widget to display the active Module and offer a way to</text><text fill="#000000" font-family="sans-serif" font-size="13" lengthAdjust="spacing" textLength="212" x="1053" y="408.9789">switch between different Modules</text></g><!--class MainWindow--><g id="elem_MainWindow"><rect fill="#F1F1F1" height="48" id="MainWindow" rx="2.5" ry="2.5" style="stroke:#181818;stroke-width:0.5;" width="119" x="1265.5" y="23.48"/><ellipse cx="1280.5" cy="39.48" fill="#ADD1B2" rx="11" ry="11" style="stroke:#181818;stroke-width:1.0;"/><path d="M1282.9731,45.6231 Q1282.3921,45.9219 1281.7529,46.0713 Q1281.1138,46.2207 1280.4082,46.2207 Q1277.9014,46.2207 1276.5815,44.5689 Q1275.2617,42.917 1275.2617,39.7959 Q1275.2617,36.6665 1276.5815,35.0147 Q1277.9014,33.3628 1280.4082,33.3628 Q1281.1138,33.3628 1281.7612,33.5122 Q1282.4087,33.6616 1282.9731,33.9605 L1282.9731,36.6831 Q1282.3423,36.1021 1281.7488,35.8323 Q1281.1553,35.5625 1280.5244,35.5625 Q1279.1797,35.5625 1278.4949,36.6292 Q1277.8101,37.6958 1277.8101,39.7959 Q1277.8101,41.8877 1278.4949,42.9544 Q1279.1797,44.021 1280.5244,44.021 Q1281.1553,44.021 1281.7488,43.7512 Q1282.3423,43.4815 1282.9731,42.9004 Z " fill="#000000"/><text fill="#000000" font-family="sans-serif" font-size="14" lengthAdjust="spacing" textLength="87" x="1294.5" y="44.771">MainWindow</text><line style="stroke:#181818;stroke-width:0.5;" x1="1266.5" x2="1383.5" y1="55.48" y2="55.48"/><line style="stroke:#181818;stroke-width:0.5;" x1="1266.5" x2="1383.5" y1="63.48" y2="63.48"/></g><!--link Details to QWidget--><g id="link_Details_QWidget"><path codeLine="8" d="M812.62,453.74 C860.67,475.64 907.2304,496.8516 943.1904,513.2416 " fill="none" id="Details-to-QWidget" style="stroke:#181818;stroke-width:1.0;"/><polygon fill="#181818" points="948.65,515.73,942.1195,508.3576,944.1003,513.6563,938.8016,515.6371,948.65,515.73" style="stroke:#181818;stroke-width:1.0;"/></g><!--link Result to Details--><g id="link_Result_Details"><path codeLine="13" d="M589.9,246.6 C606.89,272.12 627.9652,303.7554 648.2952,334.2954 " fill="none" id="Result-to-Details" style="stroke:#181818;stroke-width:1.0;"/><polygon fill="#181818" points="651.62,339.29,649.9625,329.5816,648.8493,335.1279,643.3031,334.0147,651.62,339.29" style="stroke:#181818;stroke-width:1.0;"/></g><!--reverse link ModulesWidget to QWidget--><g id="link_ModulesWidget_QWidget"><path codeLine="35" d="M1030.5083,292.3927 C1025.2483,297.5427 1033.27,290.49 1029,296.44 C981.23,362.94 985.84,466.9 990.82,513.01 " fill="none" id="ModulesWidget-backto-QWidget" style="stroke:#181818;stroke-width:1.0;"/><polygon fill="none" points="1043.37,279.8,1026.3107,288.1055,1034.7059,296.68,1043.37,279.8" style="stroke:#181818;stroke-width:1.0;"/></g><!--link ModulesWidget to Details--><g id="link_ModulesWidget_Details"><path codeLine="36" d="M1014.12,278.24 C959.21,298.03 904.6046,317.7056 851.0546,337.0056 " fill="none" id="ModulesWidget-to-Details" style="stroke:#181818;stroke-width:1.0;"/><polygon fill="#181818" points="845.41,339.04,855.2331,339.7515,850.1138,337.3447,852.5206,332.2254,845.41,339.04" style="stroke:#181818;stroke-width:1.0;"/></g><!--reverse link MainWindow to QWidget--><g id="link_MainWindow_QWidget"><path codeLine="43" d="M1373.2854,83.5656 C1381.3454,90.4756 1375.5,86.93 1381,95.97 C1475.25,250.9 1549.95,368.1 1427,501.39 C1401.11,529.45 1145.25,535.02 1039.44,536.12 " fill="none" id="MainWindow-backto-QWidget" style="stroke:#181818;stroke-width:1.0;"/><polygon fill="none" points="1359.62,71.85,1369.3802,88.1208,1377.1906,79.0105,1359.62,71.85" style="stroke:#181818;stroke-width:1.0;"/></g><!--link MainWindow to ModulesWidget--><g id="link_MainWindow_ModulesWidget"><path codeLine="44" d="M1305.8,71.74 C1289.33,91.69 1272.4201,112.1764 1250.0701,139.2464 " fill="none" id="MainWindow-to-ModulesWidget" style="stroke:#181818;stroke-width:1.0;"/><polygon fill="#181818" points="1242.43,148.5,1249.3346,146.4199,1250.0701,139.2464,1243.1655,141.3265,1242.43,148.5" style="stroke:#181818;stroke-width:1.0;"/></g><!--SRC=[ZLFDQkCm4BxxAUQOR74Um9HUTYa4McYxXHwMOCRsk178ah76CQ79k-_8KfguZQ4N_qWptu_c4nbMl8UAxUhHLhscjQdjwWynAktW8m6uCTXG1d-vK-RT_rVaoawrhAovN6vGcNnGfh931izlgdedJcJZmp6oAezrPvky6JaMuPK1xrjoaVXLlfVPZ9BacCn8JDExCnkTtVn6NVOQlShL2xbUy-X6XEvGzy9zhoqo761jEA9VQV7eCugCPOB2Cji6R3t3EJA-RWaYdXGYN9H1YGOA0bAyfSvl-oE9scmtYYDJWIURjRSsRV_fJlcV31wKutyZp44m3c5C6p6QACFKrLWI15EJniMvRxCCwsLaeiKtw4sSrnNVGbHgT2wIk32Xo9NYJeuG2qqn42wWtawF-YuKnvAyG4TvYxpDm3-rAbPFyew89QlT2Iw3A_CATIAxcgOmlynty9oArFoRniLoHkKncPgyFQJfPoQdMp_FqwHlL1KXs4AbNAjn3v8P2CPFiqJ9YgrhYHB2u2lisEe6nULMWiO3aP5-No9fEh5SP2nvb7lyDbxZBqREwsdwwuk-_m00]--></g></svg>