<svg xmlns="http://www.w3.org/2000/svg" xmlns:xlink="http://www.w3.org/1999/xlink" contentStyleType="text/css" height="615px" preserveAspectRatio="none" style="width:3600px;height:615px;background:#FFFFFF;" version="1.1" viewBox="0 0 3600 615" width="3600px" zoomAndPan="magnify"><defs/><g><text fill="#000000" font-family="sans-serif" font-size="14" font-weight="bold" lengthAdjust="spacing" textLength="454.207" x="1565.8965" y="23.5352">Projektstrukturplan - Rechnermodul "JustForYou" (Bauansicht)</text><!--cluster Rechnermodul JustForYou--><g id="cluster_Rechnermodul JustForYou"><path d="M8.5,43.4883 L197.6592,43.4883 A3.75,3.75 0 0 1 200.1592,45.9883 L207.1592,65.9766 L3590.5,65.9766 A2.5,2.5 0 0 1 3593,68.4766 L3593,605.8983 A2.5,2.5 0 0 1 3590.5,608.3983 L8.5,608.3983 A2.5,2.5 0 0 1 6,605.8983 L6,45.9883 A2.5,2.5 0 0 1 8.5,43.4883 " fill="none" style="stroke:#000000;stroke-width:1.5;"/><line style="stroke:#000000;stroke-width:1.5;" x1="6" x2="207.1592" y1="65.9766" y2="65.9766"/><text fill="#000000" font-family="sans-serif" font-size="14" font-weight="bold" lengthAdjust="spacing" textLength="188.1592" x="10" y="59.0234">Rechnermodul JustForYou</text></g><!--cluster 1. Projektmanagement--><g id="cluster_1. Projektmanagement"><path d="M32.5,86.4883 L195.416,86.4883 A3.75,3.75 0 0 1 197.916,88.9883 L204.916,108.9766 L1146.5,108.9766 A2.5,2.5 0 0 1 1149,111.4766 L1149,320.9483 A2.5,2.5 0 0 1 1146.5,323.4483 L32.5,323.4483 A2.5,2.5 0 0 1 30,320.9483 L30,88.9883 A2.5,2.5 0 0 1 32.5,86.4883 " fill="none" style="stroke:#000000;stroke-width:1.5;"/><line style="stroke:#000000;stroke-width:1.5;" x1="30" x2="204.916" y1="108.9766" y2="108.9766"/><text fill="#000000" font-family="sans-serif" font-size="14" font-weight="bold" lengthAdjust="spacing" textLength="161.916" x="34" y="102.0234">1. Projektmanagement</text></g><!--cluster 2. Anforderungsanalyse--><g id="cluster_2. Anforderungsanalyse"><path d="M1175.5,86.4883 L1348.2939,86.4883 A3.75,3.75 0 0 1 1350.7939,88.9883 L1357.7939,108.9766 L2421.5,108.9766 A2.5,2.5 0 0 1 2424,111.4766 L2424,320.9483 A2.5,2.5 0 0 1 2421.5,323.4483 L1175.5,323.4483 A2.5,2.5 0 0 1 1173,320.9483 L1173,88.9883 A2.5,2.5 0 0 1 1175.5,86.4883 " fill="none" style="stroke:#000000;stroke-width:1.5;"/><line style="stroke:#000000;stroke-width:1.5;" x1="1173" x2="1357.7939" y1="108.9766" y2="108.9766"/><text fill="#000000" font-family="sans-serif" font-size="14" font-weight="bold" lengthAdjust="spacing" textLength="171.7939" x="1177" y="102.0234">2. Anforderungsanalyse</text></g><!--cluster 3. Design und Prototyping--><g id="cluster_3. Design und Prototyping"><path d="M2450.5,86.4883 L2640.5068,86.4883 A3.75,3.75 0 0 1 2643.0068,88.9883 L2650.0068,108.9766 L3566.5,108.9766 A2.5,2.5 0 0 1 3569,111.4766 L3569,320.9483 A2.5,2.5 0 0 1 3566.5,323.4483 L2450.5,323.4483 A2.5,2.5 0 0 1 2448,320.9483 L2448,88.9883 A2.5,2.5 0 0 1 2450.5,86.4883 " fill="none" style="stroke:#000000;stroke-width:1.5;"/><line style="stroke:#000000;stroke-width:1.5;" x1="2448" x2="2650.0068" y1="108.9766" y2="108.9766"/><text fill="#000000" font-family="sans-serif" font-size="14" font-weight="bold" lengthAdjust="spacing" textLength="189.0068" x="2452" y="102.0234">3. Design und Prototyping</text></g><!--cluster 4. Entwicklung--><g id="cluster_4. Entwicklung"><path d="M32.5,347.4483 L139.2041,347.4483 A3.75,3.75 0 0 1 141.7041,349.9483 L148.7041,369.9366 L1144.5,369.9366 A2.5,2.5 0 0 1 1147,372.4366 L1147,581.8983 A2.5,2.5 0 0 1 1144.5,584.3983 L32.5,584.3983 A2.5,2.5 0 0 1 30,581.8983 L30,349.9483 A2.5,2.5 0 0 1 32.5,347.4483 " fill="none" style="stroke:#000000;stroke-width:1.5;"/><line style="stroke:#000000;stroke-width:1.5;" x1="30" x2="148.7041" y1="369.9366" y2="369.9366"/><text fill="#000000" font-family="sans-serif" font-size="14" font-weight="bold" lengthAdjust="spacing" textLength="105.7041" x="34" y="362.9834">4. Entwicklung</text></g><!--cluster 5. Test und Validierung--><g id="cluster_5. Test und Validierung"><path d="M1173.5,347.4483 L1343.293,347.4483 A3.75,3.75 0 0 1 1345.793,349.9483 L1352.793,369.9366 L2156.5,369.9366 A2.5,2.5 0 0 1 2159,372.4366 L2159,581.8983 A2.5,2.5 0 0 1 2156.5,584.3983 L1173.5,584.3983 A2.5,2.5 0 0 1 1171,581.8983 L1171,349.9483 A2.5,2.5 0 0 1 1173.5,347.4483 " fill="none" style="stroke:#000000;stroke-width:1.5;"/><line style="stroke:#000000;stroke-width:1.5;" x1="1171" x2="1352.793" y1="369.9366" y2="369.9366"/><text fill="#000000" font-family="sans-serif" font-size="14" font-weight="bold" lengthAdjust="spacing" textLength="168.793" x="1175" y="362.9834">5. Test und Validierung</text></g><!--cluster 6. Bereitstellung und Abnahme--><g id="cluster_6. Bereitstellung und Abnahme"><path d="M2185.5,347.4483 L2409.0234,347.4483 A3.75,3.75 0 0 1 2411.5234,349.9483 L2418.5234,369.9366 L3341.5,369.9366 A2.5,2.5 0 0 1 3344,372.4366 L3344,581.8983 A2.5,2.5 0 0 1 3341.5,584.3983 L2185.5,584.3983 A2.5,2.5 0 0 1 2183,581.8983 L2183,349.9483 A2.5,2.5 0 0 1 2185.5,347.4483 " fill="none" style="stroke:#000000;stroke-width:1.5;"/><line style="stroke:#000000;stroke-width:1.5;" x1="2183" x2="2418.5234" y1="369.9366" y2="369.9366"/><text fill="#000000" font-family="sans-serif" font-size="14" font-weight="bold" lengthAdjust="spacing" textLength="222.5234" x="2187" y="362.9834">6. Bereitstellung und Abnahme</text></g><!--entity 1.1 Projektplanung : Verantwortlich: Gabriel (Projektleiter)\nKosten: 2.000 ?--><g id="elem_1.1 Projektplanung : Verantwortlich: Gabriel (Projektleiter)\nKosten: 2.000 &#8364;"><rect fill="#F1F1F1" height="62.9766" rx="2.5" ry="2.5" style="stroke:#181818;stroke-width:0.5;" width="434.3037" x="111.85" y="121.4883"/><rect fill="#F1F1F1" height="10" style="stroke:#181818;stroke-width:0.5;" width="15" x="526.1537" y="126.4883"/><rect fill="#F1F1F1" height="2" style="stroke:#181818;stroke-width:0.5;" width="4" x="524.1537" y="128.4883"/><rect fill="#F1F1F1" height="2" style="stroke:#181818;stroke-width:0.5;" width="4" x="524.1537" y="132.4883"/><text fill="#000000" font-family="sans-serif" font-size="14" lengthAdjust="spacing" textLength="394.3037" x="126.85" y="155.0234">1.1 Projektplanung : Verantwortlich: Gabriel (Projektleiter)</text><text fill="#000000" font-family="sans-serif" font-size="14" lengthAdjust="spacing" textLength="108.582" x="126.85" y="171.5117">Kosten: 2.000 &#8364;</text></g><!--entity 1.2 Ressourcenmanagement : Verantwortlich: Gabriel (Projektleiter)\nKosten: 1.500 ?--><g id="elem_1.2 Ressourcenmanagement : Verantwortlich: Gabriel (Projektleiter)\nKosten: 1.500 &#8364;"><rect fill="#F1F1F1" height="62.9766" rx="2.5" ry="2.5" style="stroke:#181818;stroke-width:0.5;" width="497.5225" x="635.24" y="121.4883"/><rect fill="#F1F1F1" height="10" style="stroke:#181818;stroke-width:0.5;" width="15" x="1112.7625" y="126.4883"/><rect fill="#F1F1F1" height="2" style="stroke:#181818;stroke-width:0.5;" width="4" x="1110.7625" y="128.4883"/><rect fill="#F1F1F1" height="2" style="stroke:#181818;stroke-width:0.5;" width="4" x="1110.7625" y="132.4883"/><text fill="#000000" font-family="sans-serif" font-size="14" lengthAdjust="spacing" textLength="457.5225" x="650.24" y="155.0234">1.2 Ressourcenmanagement : Verantwortlich: Gabriel (Projektleiter)</text><text fill="#000000" font-family="sans-serif" font-size="14" lengthAdjust="spacing" textLength="108.582" x="650.24" y="171.5117">Kosten: 1.500 &#8364;</text></g><!--entity 1.3 Risikomanagement : Verantwortlich: Gabriel (Projektleiter)\nKosten: 1.000 ?--><g id="elem_1.3 Risikomanagement : Verantwortlich: Gabriel (Projektleiter)\nKosten: 1.000 &#8364;"><rect fill="#F1F1F1" height="62.9766" rx="2.5" ry="2.5" style="stroke:#181818;stroke-width:0.5;" width="460.7861" x="45.61" y="244.4683"/><rect fill="#F1F1F1" height="10" style="stroke:#181818;stroke-width:0.5;" width="15" x="486.3961" y="249.4683"/><rect fill="#F1F1F1" height="2" style="stroke:#181818;stroke-width:0.5;" width="4" x="484.3961" y="251.4683"/><rect fill="#F1F1F1" height="2" style="stroke:#181818;stroke-width:0.5;" width="4" x="484.3961" y="255.4683"/><text fill="#000000" font-family="sans-serif" font-size="14" lengthAdjust="spacing" textLength="420.7861" x="60.61" y="278.0034">1.3 Risikomanagement : Verantwortlich: Gabriel (Projektleiter)</text><text fill="#000000" font-family="sans-serif" font-size="14" lengthAdjust="spacing" textLength="108.582" x="60.61" y="294.4917">Kosten: 1.000 &#8364;</text></g><!--entity 1.4 Kommunikation und Berichterstattung : Verantwortlich: Gabriel (Projektleiter)\nKosten: 1.000 ?--><g id="elem_1.4 Kommunikation und Berichterstattung : Verantwortlich: Gabriel (Projektleiter)\nKosten: 1.000 &#8364;"><rect fill="#F1F1F1" height="62.9766" rx="2.5" ry="2.5" style="stroke:#181818;stroke-width:0.5;" width="591.1475" x="541.43" y="244.4683"/><rect fill="#F1F1F1" height="10" style="stroke:#181818;stroke-width:0.5;" width="15" x="1112.5775" y="249.4683"/><rect fill="#F1F1F1" height="2" style="stroke:#181818;stroke-width:0.5;" width="4" x="1110.5775" y="251.4683"/><rect fill="#F1F1F1" height="2" style="stroke:#181818;stroke-width:0.5;" width="4" x="1110.5775" y="255.4683"/><text fill="#000000" font-family="sans-serif" font-size="14" lengthAdjust="spacing" textLength="551.1475" x="556.43" y="278.0034">1.4 Kommunikation und Berichterstattung : Verantwortlich: Gabriel (Projektleiter)</text><text fill="#000000" font-family="sans-serif" font-size="14" lengthAdjust="spacing" textLength="108.582" x="556.43" y="294.4917">Kosten: 1.000 &#8364;</text></g><!--entity 2.1 Analyse Kundenanforderungen : Verantwortlich: Paul (Product Owner)\nKosten: 2.500 ?--><g id="elem_2.1 Analyse Kundenanforderungen : Verantwortlich: Paul (Product Owner)\nKosten: 2.500 &#8364;"><rect fill="#F1F1F1" height="62.9766" rx="2.5" ry="2.5" style="stroke:#181818;stroke-width:0.5;" width="538.832" x="1215.58" y="121.4883"/><rect fill="#F1F1F1" height="10" style="stroke:#181818;stroke-width:0.5;" width="15" x="1734.412" y="126.4883"/><rect fill="#F1F1F1" height="2" style="stroke:#181818;stroke-width:0.5;" width="4" x="1732.412" y="128.4883"/><rect fill="#F1F1F1" height="2" style="stroke:#181818;stroke-width:0.5;" width="4" x="1732.412" y="132.4883"/><text fill="#000000" font-family="sans-serif" font-size="14" lengthAdjust="spacing" textLength="498.832" x="1230.58" y="155.0234">2.1 Analyse Kundenanforderungen : Verantwortlich: Paul (Product Owner)</text><text fill="#000000" font-family="sans-serif" font-size="14" lengthAdjust="spacing" textLength="108.582" x="1230.58" y="171.5117">Kosten: 2.500 &#8364;</text></g><!--entity 2.2 Spezifikation der Funktionalmodule : Verantwortlich: Paul (Product Owner)\nKosten: 2.000 ?--><g id="elem_2.2 Spezifikation der Funktionalmodule : Verantwortlich: Paul (Product Owner)\nKosten: 2.000 &#8364;"><rect fill="#F1F1F1" height="62.9766" rx="2.5" ry="2.5" style="stroke:#181818;stroke-width:0.5;" width="570.9131" x="1837.54" y="121.4883"/><rect fill="#F1F1F1" height="10" style="stroke:#181818;stroke-width:0.5;" width="15" x="2388.4531" y="126.4883"/><rect fill="#F1F1F1" height="2" style="stroke:#181818;stroke-width:0.5;" width="4" x="2386.4531" y="128.4883"/><rect fill="#F1F1F1" height="2" style="stroke:#181818;stroke-width:0.5;" width="4" x="2386.4531" y="132.4883"/><text fill="#000000" font-family="sans-serif" font-size="14" lengthAdjust="spacing" textLength="530.9131" x="1852.54" y="155.0234">2.2 Spezifikation der Funktionalmodule : Verantwortlich: Paul (Product Owner)</text><text fill="#000000" font-family="sans-serif" font-size="14" lengthAdjust="spacing" textLength="108.582" x="1852.54" y="171.5117">Kosten: 2.000 &#8364;</text></g><!--entity 2.3 Technische und nicht-funktionale Anforderungen : Verantwortlich: Hugo (Entwickler)\nKosten: 1.500 ?--><g id="elem_2.3 Technische und nicht-funktionale Anforderungen : Verantwortlich: Hugo (Entwickler)\nKosten: 1.500 &#8364;"><rect fill="#F1F1F1" height="62.9766" rx="2.5" ry="2.5" style="stroke:#181818;stroke-width:0.5;" width="643.5381" x="1189.23" y="244.4683"/><rect fill="#F1F1F1" height="10" style="stroke:#181818;stroke-width:0.5;" width="15" x="1812.7681" y="249.4683"/><rect fill="#F1F1F1" height="2" style="stroke:#181818;stroke-width:0.5;" width="4" x="1810.7681" y="251.4683"/><rect fill="#F1F1F1" height="2" style="stroke:#181818;stroke-width:0.5;" width="4" x="1810.7681" y="255.4683"/><text fill="#000000" font-family="sans-serif" font-size="14" lengthAdjust="spacing" textLength="603.5381" x="1204.23" y="278.0034">2.3 Technische und nicht-funktionale Anforderungen : Verantwortlich: Hugo (Entwickler)</text><text fill="#000000" font-family="sans-serif" font-size="14" lengthAdjust="spacing" textLength="108.582" x="1204.23" y="294.4917">Kosten: 1.500 &#8364;</text></g><!--entity 2.4 Validierung der Anforderungen : Verantwortlich: Paul (Product Owner)\nKosten: 1.500 ?--><g id="elem_2.4 Validierung der Anforderungen : Verantwortlich: Paul (Product Owner)\nKosten: 1.500 &#8364;"><rect fill="#F1F1F1" height="62.9766" rx="2.5" ry="2.5" style="stroke:#181818;stroke-width:0.5;" width="540.8076" x="1867.6" y="244.4683"/><rect fill="#F1F1F1" height="10" style="stroke:#181818;stroke-width:0.5;" width="15" x="2388.4076" y="249.4683"/><rect fill="#F1F1F1" height="2" style="stroke:#181818;stroke-width:0.5;" width="4" x="2386.4076" y="251.4683"/><rect fill="#F1F1F1" height="2" style="stroke:#181818;stroke-width:0.5;" width="4" x="2386.4076" y="255.4683"/><text fill="#000000" font-family="sans-serif" font-size="14" lengthAdjust="spacing" textLength="500.8076" x="1882.6" y="278.0034">2.4 Validierung der Anforderungen : Verantwortlich: Paul (Product Owner)</text><text fill="#000000" font-family="sans-serif" font-size="14" lengthAdjust="spacing" textLength="108.582" x="1882.6" y="294.4917">Kosten: 1.500 &#8364;</text></g><!--entity 3.1 Entwurf Benutzeroberfl?che (GUI) : Verantwortlich: Hugo (Entwickler)\nKosten: 3.000 ?--><g id="elem_3.1 Entwurf Benutzeroberfl&#228;che (GUI) : Verantwortlich: Hugo (Entwickler)\nKosten: 3.000 &#8364;"><rect fill="#F1F1F1" height="62.9766" rx="2.5" ry="2.5" style="stroke:#181818;stroke-width:0.5;" width="531.6953" x="2464.15" y="121.4883"/><rect fill="#F1F1F1" height="10" style="stroke:#181818;stroke-width:0.5;" width="15" x="2975.8453" y="126.4883"/><rect fill="#F1F1F1" height="2" style="stroke:#181818;stroke-width:0.5;" width="4" x="2973.8453" y="128.4883"/><rect fill="#F1F1F1" height="2" style="stroke:#181818;stroke-width:0.5;" width="4" x="2973.8453" y="132.4883"/><text fill="#000000" font-family="sans-serif" font-size="14" lengthAdjust="spacing" textLength="491.6953" x="2479.15" y="155.0234">3.1 Entwurf Benutzeroberfl&#228;che (GUI) : Verantwortlich: Hugo (Entwickler)</text><text fill="#000000" font-family="sans-serif" font-size="14" lengthAdjust="spacing" textLength="108.582" x="2479.15" y="171.5117">Kosten: 3.000 &#8364;</text></g><!--entity 3.2 Entwurf der Softwarearchitektur : Verantwortlich: Hugo (Entwickler)\nKosten: 2.500 ?--><g id="elem_3.2 Entwurf der Softwarearchitektur : Verantwortlich: Hugo (Entwickler)\nKosten: 2.500 &#8364;"><rect fill="#F1F1F1" height="62.9766" rx="2.5" ry="2.5" style="stroke:#181818;stroke-width:0.5;" width="522.3438" x="3030.83" y="121.4883"/><rect fill="#F1F1F1" height="10" style="stroke:#181818;stroke-width:0.5;" width="15" x="3533.1738" y="126.4883"/><rect fill="#F1F1F1" height="2" style="stroke:#181818;stroke-width:0.5;" width="4" x="3531.1738" y="128.4883"/><rect fill="#F1F1F1" height="2" style="stroke:#181818;stroke-width:0.5;" width="4" x="3531.1738" y="132.4883"/><text fill="#000000" font-family="sans-serif" font-size="14" lengthAdjust="spacing" textLength="482.3438" x="3045.83" y="155.0234">3.2 Entwurf der Softwarearchitektur : Verantwortlich: Hugo (Entwickler)</text><text fill="#000000" font-family="sans-serif" font-size="14" lengthAdjust="spacing" textLength="108.582" x="3045.83" y="171.5117">Kosten: 2.500 &#8364;</text></g><!--entity 3.3 Prototyp der GUI : Verantwortlich: Hugo (Entwickler)\nKosten: 3.000 ?--><g id="elem_3.3 Prototyp der GUI : Verantwortlich: Hugo (Entwickler)\nKosten: 3.000 &#8364;"><rect fill="#F1F1F1" height="62.9766" rx="2.5" ry="2.5" style="stroke:#181818;stroke-width:0.5;" width="418.7861" x="2520.61" y="244.4683"/><rect fill="#F1F1F1" height="10" style="stroke:#181818;stroke-width:0.5;" width="15" x="2919.3961" y="249.4683"/><rect fill="#F1F1F1" height="2" style="stroke:#181818;stroke-width:0.5;" width="4" x="2917.3961" y="251.4683"/><rect fill="#F1F1F1" height="2" style="stroke:#181818;stroke-width:0.5;" width="4" x="2917.3961" y="255.4683"/><text fill="#000000" font-family="sans-serif" font-size="14" lengthAdjust="spacing" textLength="378.7861" x="2535.61" y="278.0034">3.3 Prototyp der GUI : Verantwortlich: Hugo (Entwickler)</text><text fill="#000000" font-family="sans-serif" font-size="14" lengthAdjust="spacing" textLength="108.582" x="2535.61" y="294.4917">Kosten: 3.000 &#8364;</text></g><!--entity 3.4 Review und Freigabe des Designs : Verantwortlich: Paul (Product Owner)\nKosten: 1.500 ?--><g id="elem_3.4 Review und Freigabe des Designs : Verantwortlich: Paul (Product Owner)\nKosten: 1.500 &#8364;"><rect fill="#F1F1F1" height="62.9766" rx="2.5" ry="2.5" style="stroke:#181818;stroke-width:0.5;" width="555.7441" x="2974.13" y="244.4683"/><rect fill="#F1F1F1" height="10" style="stroke:#181818;stroke-width:0.5;" width="15" x="3509.8741" y="249.4683"/><rect fill="#F1F1F1" height="2" style="stroke:#181818;stroke-width:0.5;" width="4" x="3507.8741" y="251.4683"/><rect fill="#F1F1F1" height="2" style="stroke:#181818;stroke-width:0.5;" width="4" x="3507.8741" y="255.4683"/><text fill="#000000" font-family="sans-serif" font-size="14" lengthAdjust="spacing" textLength="515.7441" x="2989.13" y="278.0034">3.4 Review und Freigabe des Designs : Verantwortlich: Paul (Product Owner)</text><text fill="#000000" font-family="sans-serif" font-size="14" lengthAdjust="spacing" textLength="108.582" x="2989.13" y="294.4917">Kosten: 1.500 &#8364;</text></g><!--entity 4.1 Entwicklung der Basissoftware : Verantwortlich: Hugo (Entwickler)\nKosten: 4.000 ?--><g id="elem_4.1 Entwicklung der Basissoftware : Verantwortlich: Hugo (Entwickler)\nKosten: 4.000 &#8364;"><rect fill="#F1F1F1" height="62.9766" rx="2.5" ry="2.5" style="stroke:#181818;stroke-width:0.5;" width="511.7959" x="46.1" y="382.4483"/><rect fill="#F1F1F1" height="10" style="stroke:#181818;stroke-width:0.5;" width="15" x="537.8959" y="387.4483"/><rect fill="#F1F1F1" height="2" style="stroke:#181818;stroke-width:0.5;" width="4" x="535.8959" y="389.4483"/><rect fill="#F1F1F1" height="2" style="stroke:#181818;stroke-width:0.5;" width="4" x="535.8959" y="393.4483"/><text fill="#000000" font-family="sans-serif" font-size="14" lengthAdjust="spacing" textLength="471.7959" x="61.1" y="415.9834">4.1 Entwicklung der Basissoftware : Verantwortlich: Hugo (Entwickler)</text><text fill="#000000" font-family="sans-serif" font-size="14" lengthAdjust="spacing" textLength="108.582" x="61.1" y="432.4717">Kosten: 4.000 &#8364;</text></g><!--entity 4.2 Entwicklung der Funktionsmodule : Verantwortlich: Hugo (Entwickler)\nKosten: 5.000 ?--><g id="elem_4.2 Entwicklung der Funktionsmodule : Verantwortlich: Hugo (Entwickler)\nKosten: 5.000 &#8364;"><rect fill="#F1F1F1" height="62.9766" rx="2.5" ry="2.5" style="stroke:#181818;stroke-width:0.5;" width="537.3145" x="593.34" y="382.4483"/><rect fill="#F1F1F1" height="10" style="stroke:#181818;stroke-width:0.5;" width="15" x="1110.6545" y="387.4483"/><rect fill="#F1F1F1" height="2" style="stroke:#181818;stroke-width:0.5;" width="4" x="1108.6545" y="389.4483"/><rect fill="#F1F1F1" height="2" style="stroke:#181818;stroke-width:0.5;" width="4" x="1108.6545" y="393.4483"/><text fill="#000000" font-family="sans-serif" font-size="14" lengthAdjust="spacing" textLength="497.3145" x="608.34" y="415.9834">4.2 Entwicklung der Funktionsmodule : Verantwortlich: Hugo (Entwickler)</text><text fill="#000000" font-family="sans-serif" font-size="14" lengthAdjust="spacing" textLength="108.582" x="608.34" y="432.4717">Kosten: 5.000 &#8364;</text></g><!--entity 4.3 Integration der Laufzeitbibliotheken : Verantwortlich: Hugo (Entwickler)\nKosten: 3.500 ?--><g id="elem_4.3 Integration der Laufzeitbibliotheken : Verantwortlich: Hugo (Entwickler)\nKosten: 3.500 &#8364;"><rect fill="#F1F1F1" height="62.9766" rx="2.5" ry="2.5" style="stroke:#181818;stroke-width:0.5;" width="551.0889" x="46.46" y="505.4183"/><rect fill="#F1F1F1" height="10" style="stroke:#181818;stroke-width:0.5;" width="15" x="577.5489" y="510.4183"/><rect fill="#F1F1F1" height="2" style="stroke:#181818;stroke-width:0.5;" width="4" x="575.5489" y="512.4183"/><rect fill="#F1F1F1" height="2" style="stroke:#181818;stroke-width:0.5;" width="4" x="575.5489" y="516.4183"/><text fill="#000000" font-family="sans-serif" font-size="14" lengthAdjust="spacing" textLength="511.0889" x="61.46" y="538.9534">4.3 Integration der Laufzeitbibliotheken : Verantwortlich: Hugo (Entwickler)</text><text fill="#000000" font-family="sans-serif" font-size="14" lengthAdjust="spacing" textLength="108.582" x="61.46" y="555.4417">Kosten: 3.500 &#8364;</text></g><!--entity 4.4 Interne Tests (Modultests) : Verantwortlich: Hugo (Entwickler)\nKosten: 2.000 ?--><g id="elem_4.4 Interne Tests (Modultests) : Verantwortlich: Hugo (Entwickler)\nKosten: 2.000 &#8364;"><rect fill="#F1F1F1" height="62.9766" rx="2.5" ry="2.5" style="stroke:#181818;stroke-width:0.5;" width="483.3242" x="632.34" y="505.4183"/><rect fill="#F1F1F1" height="10" style="stroke:#181818;stroke-width:0.5;" width="15" x="1095.6642" y="510.4183"/><rect fill="#F1F1F1" height="2" style="stroke:#181818;stroke-width:0.5;" width="4" x="1093.6642" y="512.4183"/><rect fill="#F1F1F1" height="2" style="stroke:#181818;stroke-width:0.5;" width="4" x="1093.6642" y="516.4183"/><text fill="#000000" font-family="sans-serif" font-size="14" lengthAdjust="spacing" textLength="443.3242" x="647.34" y="538.9534">4.4 Interne Tests (Modultests) : Verantwortlich: Hugo (Entwickler)</text><text fill="#000000" font-family="sans-serif" font-size="14" lengthAdjust="spacing" textLength="108.582" x="647.34" y="555.4417">Kosten: 2.000 &#8364;</text></g><!--entity 5.1 Systemtests : Verantwortlich: Hugo (Entwickler)\nKosten: 2.500 ?--><g id="elem_5.1 Systemtests : Verantwortlich: Hugo (Entwickler)\nKosten: 2.500 &#8364;"><rect fill="#F1F1F1" height="62.9766" rx="2.5" ry="2.5" style="stroke:#181818;stroke-width:0.5;" width="387.1152" x="1187.44" y="382.4483"/><rect fill="#F1F1F1" height="10" style="stroke:#181818;stroke-width:0.5;" width="15" x="1554.5552" y="387.4483"/><rect fill="#F1F1F1" height="2" style="stroke:#181818;stroke-width:0.5;" width="4" x="1552.5552" y="389.4483"/><rect fill="#F1F1F1" height="2" style="stroke:#181818;stroke-width:0.5;" width="4" x="1552.5552" y="393.4483"/><text fill="#000000" font-family="sans-serif" font-size="14" lengthAdjust="spacing" textLength="347.1152" x="1202.44" y="415.9834">5.1 Systemtests : Verantwortlich: Hugo (Entwickler)</text><text fill="#000000" font-family="sans-serif" font-size="14" lengthAdjust="spacing" textLength="108.582" x="1202.44" y="432.4717">Kosten: 2.500 &#8364;</text></g><!--entity 5.2 Akzeptanztests durch Kunden : Verantwortlich: Paul (Product Owner)\nKosten: 1.500 ?--><g id="elem_5.2 Akzeptanztests durch Kunden : Verantwortlich: Paul (Product Owner)\nKosten: 1.500 &#8364;"><rect fill="#F1F1F1" height="62.9766" rx="2.5" ry="2.5" style="stroke:#181818;stroke-width:0.5;" width="533.8486" x="1609.08" y="382.4483"/><rect fill="#F1F1F1" height="10" style="stroke:#181818;stroke-width:0.5;" width="15" x="2122.9286" y="387.4483"/><rect fill="#F1F1F1" height="2" style="stroke:#181818;stroke-width:0.5;" width="4" x="2120.9286" y="389.4483"/><rect fill="#F1F1F1" height="2" style="stroke:#181818;stroke-width:0.5;" width="4" x="2120.9286" y="393.4483"/><text fill="#000000" font-family="sans-serif" font-size="14" lengthAdjust="spacing" textLength="493.8486" x="1624.08" y="415.9834">5.2 Akzeptanztests durch Kunden : Verantwortlich: Paul (Product Owner)</text><text fill="#000000" font-family="sans-serif" font-size="14" lengthAdjust="spacing" textLength="108.582" x="1624.08" y="432.4717">Kosten: 1.500 &#8364;</text></g><!--entity 5.3 Fehlerbehebung und Optimierung : Verantwortlich: Hugo (Entwickler)\nKosten: 2.000 ?--><g id="elem_5.3 Fehlerbehebung und Optimierung : Verantwortlich: Hugo (Entwickler)\nKosten: 2.000 &#8364;"><rect fill="#F1F1F1" height="62.9766" rx="2.5" ry="2.5" style="stroke:#181818;stroke-width:0.5;" width="536.8291" x="1186.59" y="505.4183"/><rect fill="#F1F1F1" height="10" style="stroke:#181818;stroke-width:0.5;" width="15" x="1703.4191" y="510.4183"/><rect fill="#F1F1F1" height="2" style="stroke:#181818;stroke-width:0.5;" width="4" x="1701.4191" y="512.4183"/><rect fill="#F1F1F1" height="2" style="stroke:#181818;stroke-width:0.5;" width="4" x="1701.4191" y="516.4183"/><text fill="#000000" font-family="sans-serif" font-size="14" lengthAdjust="spacing" textLength="496.8291" x="1201.59" y="538.9534">5.3 Fehlerbehebung und Optimierung : Verantwortlich: Hugo (Entwickler)</text><text fill="#000000" font-family="sans-serif" font-size="14" lengthAdjust="spacing" textLength="108.582" x="1201.59" y="555.4417">Kosten: 2.000 &#8364;</text></g><!--entity 6.1 Bereitstellung der finalen Version : Verantwortlich: Hugo (Entwickler)\nKosten: 1.500 ?--><g id="elem_6.1 Bereitstellung der finalen Version : Verantwortlich: Hugo (Entwickler)\nKosten: 1.500 &#8364;"><rect fill="#F1F1F1" height="62.9766" rx="2.5" ry="2.5" style="stroke:#181818;stroke-width:0.5;" width="532.4404" x="2198.78" y="382.4483"/><rect fill="#F1F1F1" height="10" style="stroke:#181818;stroke-width:0.5;" width="15" x="2711.2204" y="387.4483"/><rect fill="#F1F1F1" height="2" style="stroke:#181818;stroke-width:0.5;" width="4" x="2709.2204" y="389.4483"/><rect fill="#F1F1F1" height="2" style="stroke:#181818;stroke-width:0.5;" width="4" x="2709.2204" y="393.4483"/><text fill="#000000" font-family="sans-serif" font-size="14" lengthAdjust="spacing" textLength="492.4404" x="2213.78" y="415.9834">6.1 Bereitstellung der finalen Version : Verantwortlich: Hugo (Entwickler)</text><text fill="#000000" font-family="sans-serif" font-size="14" lengthAdjust="spacing" textLength="108.582" x="2213.78" y="432.4717">Kosten: 1.500 &#8364;</text></g><!--entity 6.2 Abnahme durch den Auftraggeber : Verantwortlich: Paul (Product Owner)\nKosten: 1.000 ?--><g id="elem_6.2 Abnahme durch den Auftraggeber : Verantwortlich: Paul (Product Owner)\nKosten: 1.000 &#8364;"><rect fill="#F1F1F1" height="62.9766" rx="2.5" ry="2.5" style="stroke:#181818;stroke-width:0.5;" width="561.2949" x="2766.35" y="382.4483"/><rect fill="#F1F1F1" height="10" style="stroke:#181818;stroke-width:0.5;" width="15" x="3307.6449" y="387.4483"/><rect fill="#F1F1F1" height="2" style="stroke:#181818;stroke-width:0.5;" width="4" x="3305.6449" y="389.4483"/><rect fill="#F1F1F1" height="2" style="stroke:#181818;stroke-width:0.5;" width="4" x="3305.6449" y="393.4483"/><text fill="#000000" font-family="sans-serif" font-size="14" lengthAdjust="spacing" textLength="521.2949" x="2781.35" y="415.9834">6.2 Abnahme durch den Auftraggeber : Verantwortlich: Paul (Product Owner)</text><text fill="#000000" font-family="sans-serif" font-size="14" lengthAdjust="spacing" textLength="108.582" x="2781.35" y="432.4717">Kosten: 1.000 &#8364;</text></g><!--entity 6.3 Dokumentation der Software : Verantwortlich: Gabriel (Projektleiter), Paul (Product Owner)\nKosten: 1.000 ?--><g id="elem_6.3 Dokumentation der Software : Verantwortlich: Gabriel (Projektleiter), Paul (Product Owner)\nKosten: 1.000 &#8364;"><rect fill="#F1F1F1" height="62.9766" rx="2.5" ry="2.5" style="stroke:#181818;stroke-width:0.5;" width="677.082" x="2199.46" y="505.4183"/><rect fill="#F1F1F1" height="10" style="stroke:#181818;stroke-width:0.5;" width="15" x="2856.542" y="510.4183"/><rect fill="#F1F1F1" height="2" style="stroke:#181818;stroke-width:0.5;" width="4" x="2854.542" y="512.4183"/><rect fill="#F1F1F1" height="2" style="stroke:#181818;stroke-width:0.5;" width="4" x="2854.542" y="516.4183"/><text fill="#000000" font-family="sans-serif" font-size="14" lengthAdjust="spacing" textLength="637.082" x="2214.46" y="538.9534">6.3 Dokumentation der Software : Verantwortlich: Gabriel (Projektleiter), Paul (Product Owner)</text><text fill="#000000" font-family="sans-serif" font-size="14" lengthAdjust="spacing" textLength="108.582" x="2214.46" y="555.4417">Kosten: 1.000 &#8364;</text></g><!--SRC=[hLNBRXf14Bpp5IsVG8fNm88Flc4vE8uJsJA9fIZ9ONRftPtixWoQHv29kEHRSinVv4_o9UdP1u-DiGHOyW4FJLLtLKsFuIP3k5Fo6wP66sLJOzKiOm9EuHx3HA3AvTHcSFBMQZEMwfEq9z2-O9O9pSF4T5gj6GjJ5YESRFrWi_v72u3-LeKzhwRCcQ2J78Kfgm0-zxnU_Qrhn8eOpk415HDcBfN9YFKShbYWE6RGhYepv0PLvukuaTgWE8U-r-rsuU_Ftrzhr3uDfBMqAaInfZq4k-SD6zW-t7FDKtaiRhFd0Tp8FBU2fynmAS2AALoWSiAZqeOPSw0yMrJBXZrz3qOYacgAYk0rpPGzQbmPr2U3HkKPt517ADYw6iKJxTmnM_OojQ61sxbeMBKjPv-icinmmQDwR8A6iHMf-uTbHRxm09fkWyQ73ownN8S95j8A9-nfj6B2JHsUdEoDZIMqNzCH3zFisPJqoSq7bl4fB-2AeKP72RV5i6njMkXxS8cQnsLa2C18ypZZ8bwvw9EBhc-h8egKi6Q1IWQeekpFBwT7- -hZTMU_YVs6mZuPMLEuQISoCdEcaAameJowLRCVGJCfFbbOprOmKC_7jZoWDV6TuxmGRgoGnon00jULeFebRHfuKBTbDxmPLDvKvyLe5qnpMb-bWliDEMWCEQXysOIlhvVUURkU8HZ-H-33jJ0Og_NzVSTijA0r5F0Wuz8acEvxeVo6-mFooh4eWNIHjT7GVk-QD-vpPzzaTNTvDFGAz28F6_TtPTQGp9ey4anU41-Nw25PCqeNE3DCB4gyARrOIRLeZyjUWU_361Dg8i040-U-c-jsPdXUxQMNqktCSqyLEKwLMLOpZGB1adpzc9oHUeqobvQ8k_KhN2lQ9UYepNlcH2rvApMTb2CR6SNY66df7Q1hjq7XmwLChNlwrvcVxBwkErxeL_lm5k_silKF]--></g></svg>